# xmcd
#
# Track frame offsets: 
#        187
#        19055
#        34432
#        52527
#        70285
#        88997
#        106962
#        126525
#        144340
#        160877
#        177872
#        195917
#        212797
#        230510
#        248250
#
# Disc length: 3634 seconds
#
# Revision: 2
# Processed by: cddbd v1.5.2PL0 Copyright (c) Steve Scherf et al.
# Submitted via: ExactAudioCopy v0.99pb5
#
DISCID=c80e300f
DTITLE=La Bouche - Sweet Dreams (Japan)
DYEAR=1995
DGENRE=Eurodance
TTITLE0=Forget Me Nots
TTITLE1=Sweet Dreams
TTITLE2=Be My Lover
TTITLE3=Fallin' In Love
TTITLE4=I'll Be There
TTITLE5=Nice 'n' Slow
TTITLE6=Where Do You Go
TTITLE7=I Love To Love
TTITLE8=Do You Still Need Me
TTITLE9=Poetry In Motion
TTITLE10=Shoo Bee Do Bee Do (I Like That Way)
TTITLE11=The Heat Is On
TTITLE12=Mama Look (I Love Him)
TTITLE13=Be My Lover (House Mix)
TTITLE14=Fallin' In Love (Spike House Mix)
EXTD=
EXTT0=
EXTT1=
EXTT2=
EXTT3=
EXTT4=
EXTT5=
EXTT6=
EXTT7=
EXTT8=
EXTT9=
EXTT10=
EXTT11=
EXTT12=
EXTT13=
EXTT14=
PLAYORDER=
